<mxfile host="app.diagrams.net" modified="2023-09-13T08:21:22.455Z" agent="Mozilla/5.0 (Windows NT 10.0; Win64; x64) AppleWebKit/537.36 (KHTML, like Gecko) Chrome/116.0.0.0 Safari/537.36" etag="S7TaNSLKlbuFNx_WbT21" version="21.7.4" type="device">
  <diagram name="Page-1" id="AVis8LtxwD6J1lnIGp9r">
    <mxGraphModel dx="2876" dy="1117" grid="1" gridSize="10" guides="1" tooltips="1" connect="1" arrows="1" fold="1" page="1" pageScale="1" pageWidth="827" pageHeight="1169" math="0" shadow="0">
      <root>
        <mxCell id="0" />
        <mxCell id="1" parent="0" />
        <mxCell id="eGANBQNXA1RVqkdVqF60-1" value="&lt;b style=&quot;font-size: 17px;&quot;&gt;Problème a résoudre&lt;br&gt;&lt;/b&gt;RATP souhaite avoir un moyen de vérifier la souscription des usagers lors de l&#39;utilisation des transports" style="html=1;whiteSpace=wrap;" parent="1" vertex="1">
          <mxGeometry x="40" y="80" width="360" height="80" as="geometry" />
        </mxCell>
        <mxCell id="eGANBQNXA1RVqkdVqF60-3" value="&lt;b style=&quot;font-size: 17px;&quot;&gt;Scénario&lt;br&gt;&lt;/b&gt;Un usager va devoir valider son passe qui permettra l&#39;accès aux transports qu&#39;il souhaite prendre pour son trajet" style="html=1;whiteSpace=wrap;" parent="1" vertex="1">
          <mxGeometry x="40" y="200" width="360" height="80" as="geometry" />
        </mxCell>
        <mxCell id="eGANBQNXA1RVqkdVqF60-4" value="&lt;b style=&quot;font-size: 17px;&quot;&gt;De quoi a-t-on besoin ?&lt;br&gt;&lt;/b&gt;&lt;br&gt;&lt;b&gt;user&lt;/b&gt;: Object&lt;br&gt;&lt;b&gt;validate&lt;/b&gt;: boolean&lt;br&gt;&lt;b&gt;pass&lt;/b&gt;: boolean&lt;br&gt;&lt;b&gt;accès&lt;/b&gt;: boolean&lt;br&gt;&lt;b&gt;zone&lt;/b&gt;: integer&lt;br&gt;&lt;b&gt;sonLumiere&lt;/b&gt;: boolean&lt;br&gt;&amp;nbsp;&lt;br&gt;&lt;br&gt;&lt;br&gt;Liste de des types de données :&amp;nbsp;&lt;br&gt;&lt;div&gt;String (chaine de caractères)&lt;/div&gt;&lt;div&gt;Integer (nombre entier)&lt;/div&gt;&lt;div&gt;float (nombre décimal)&lt;/div&gt;&lt;div&gt;booléen (vrai ou faux)&lt;/div&gt;&lt;div&gt;array (tableau)&lt;/div&gt;&lt;div&gt;object (objet)&lt;/div&gt;" style="html=1;whiteSpace=wrap;" parent="1" vertex="1">
          <mxGeometry x="440" y="80" width="280" height="300" as="geometry" />
        </mxCell>
        <mxCell id="eGANBQNXA1RVqkdVqF60-12" value="" style="edgeStyle=orthogonalEdgeStyle;rounded=0;orthogonalLoop=1;jettySize=auto;html=1;" parent="1" source="eGANBQNXA1RVqkdVqF60-5" target="eGANBQNXA1RVqkdVqF60-11" edge="1">
          <mxGeometry relative="1" as="geometry" />
        </mxCell>
        <mxCell id="eGANBQNXA1RVqkdVqF60-5" value="" style="ellipse;whiteSpace=wrap;html=1;aspect=fixed;" parent="1" vertex="1">
          <mxGeometry x="200" y="400" width="20" height="20" as="geometry" />
        </mxCell>
        <mxCell id="eGANBQNXA1RVqkdVqF60-10" value="&lt;font style=&quot;font-size: 6px;&quot;&gt;user.Passage du pass&lt;/font&gt;" style="text;html=1;strokeColor=none;fillColor=none;align=center;verticalAlign=middle;whiteSpace=wrap;rounded=0;" parent="1" vertex="1">
          <mxGeometry x="214" y="402" width="80" height="11.87" as="geometry" />
        </mxCell>
        <mxCell id="eGANBQNXA1RVqkdVqF60-16" value="" style="edgeStyle=orthogonalEdgeStyle;rounded=0;orthogonalLoop=1;jettySize=auto;html=1;" parent="1" source="eGANBQNXA1RVqkdVqF60-11" target="eGANBQNXA1RVqkdVqF60-15" edge="1">
          <mxGeometry relative="1" as="geometry" />
        </mxCell>
        <mxCell id="eGANBQNXA1RVqkdVqF60-11" value="&lt;p style=&quot;line-height: 50%;&quot;&gt;&lt;font style=&quot;font-size: 6px;&quot;&gt;Verifier l&#39;abonnement&amp;nbsp;&lt;br&gt;ref(valiser)&lt;br&gt;&lt;/font&gt;&lt;/p&gt;" style="shape=parallelogram;perimeter=parallelogramPerimeter;whiteSpace=wrap;html=1;fixedSize=1;" parent="1" vertex="1">
          <mxGeometry x="142.5" y="450" width="135" height="30" as="geometry" />
        </mxCell>
        <mxCell id="eGANBQNXA1RVqkdVqF60-18" value="" style="edgeStyle=orthogonalEdgeStyle;rounded=0;orthogonalLoop=1;jettySize=auto;html=1;" parent="1" source="eGANBQNXA1RVqkdVqF60-15" target="eGANBQNXA1RVqkdVqF60-17" edge="1">
          <mxGeometry relative="1" as="geometry" />
        </mxCell>
        <mxCell id="eGANBQNXA1RVqkdVqF60-20" value="" style="edgeStyle=orthogonalEdgeStyle;rounded=0;orthogonalLoop=1;jettySize=auto;html=1;" parent="1" source="eGANBQNXA1RVqkdVqF60-15" target="eGANBQNXA1RVqkdVqF60-19" edge="1">
          <mxGeometry relative="1" as="geometry" />
        </mxCell>
        <mxCell id="eGANBQNXA1RVqkdVqF60-15" value="&lt;font style=&quot;font-size: 7px;&quot;&gt;Abonnement + zone&lt;/font&gt;" style="rhombus;whiteSpace=wrap;html=1;" parent="1" vertex="1">
          <mxGeometry x="170" y="510" width="80" height="80" as="geometry" />
        </mxCell>
        <mxCell id="eGANBQNXA1RVqkdVqF60-22" value="" style="edgeStyle=orthogonalEdgeStyle;rounded=0;orthogonalLoop=1;jettySize=auto;html=1;" parent="1" source="eGANBQNXA1RVqkdVqF60-17" target="eGANBQNXA1RVqkdVqF60-21" edge="1">
          <mxGeometry relative="1" as="geometry" />
        </mxCell>
        <mxCell id="eGANBQNXA1RVqkdVqF60-17" value="Abonnement + zone = Oui" style="ellipse;whiteSpace=wrap;html=1;" parent="1" vertex="1">
          <mxGeometry x="40" y="640" width="80" height="80" as="geometry" />
        </mxCell>
        <mxCell id="eGANBQNXA1RVqkdVqF60-38" value="" style="edgeStyle=orthogonalEdgeStyle;rounded=0;orthogonalLoop=1;jettySize=auto;html=1;" parent="1" source="eGANBQNXA1RVqkdVqF60-19" target="eGANBQNXA1RVqkdVqF60-37" edge="1">
          <mxGeometry relative="1" as="geometry" />
        </mxCell>
        <mxCell id="eGANBQNXA1RVqkdVqF60-19" value="Abonnement + zone = Non" style="ellipse;whiteSpace=wrap;html=1;" parent="1" vertex="1">
          <mxGeometry x="470" y="640" width="80" height="80" as="geometry" />
        </mxCell>
        <mxCell id="eGANBQNXA1RVqkdVqF60-24" value="" style="edgeStyle=orthogonalEdgeStyle;rounded=0;orthogonalLoop=1;jettySize=auto;html=1;" parent="1" source="eGANBQNXA1RVqkdVqF60-21" target="eGANBQNXA1RVqkdVqF60-23" edge="1">
          <mxGeometry relative="1" as="geometry" />
        </mxCell>
        <mxCell id="eGANBQNXA1RVqkdVqF60-21" value="&lt;font style=&quot;font-size: 10px;&quot;&gt;sonLumiere = True&lt;br&gt;Accès = True&lt;/font&gt;" style="shape=parallelogram;perimeter=parallelogramPerimeter;whiteSpace=wrap;html=1;fixedSize=1;" parent="1" vertex="1">
          <mxGeometry x="20" y="810" width="120" height="60" as="geometry" />
        </mxCell>
        <mxCell id="eGANBQNXA1RVqkdVqF60-26" value="" style="edgeStyle=orthogonalEdgeStyle;rounded=0;orthogonalLoop=1;jettySize=auto;html=1;" parent="1" source="eGANBQNXA1RVqkdVqF60-23" target="eGANBQNXA1RVqkdVqF60-25" edge="1">
          <mxGeometry relative="1" as="geometry" />
        </mxCell>
        <mxCell id="eGANBQNXA1RVqkdVqF60-28" value="" style="edgeStyle=orthogonalEdgeStyle;rounded=0;orthogonalLoop=1;jettySize=auto;html=1;" parent="1" source="eGANBQNXA1RVqkdVqF60-23" target="eGANBQNXA1RVqkdVqF60-27" edge="1">
          <mxGeometry relative="1" as="geometry" />
        </mxCell>
        <mxCell id="eGANBQNXA1RVqkdVqF60-23" value="&lt;font style=&quot;font-size: 9px;&quot;&gt;User.passe le portique&lt;/font&gt;" style="rhombus;whiteSpace=wrap;html=1;" parent="1" vertex="1">
          <mxGeometry x="40" y="940" width="80" height="80" as="geometry" />
        </mxCell>
        <mxCell id="eGANBQNXA1RVqkdVqF60-30" value="" style="edgeStyle=orthogonalEdgeStyle;rounded=0;orthogonalLoop=1;jettySize=auto;html=1;" parent="1" source="eGANBQNXA1RVqkdVqF60-25" target="eGANBQNXA1RVqkdVqF60-29" edge="1">
          <mxGeometry relative="1" as="geometry" />
        </mxCell>
        <mxCell id="eGANBQNXA1RVqkdVqF60-25" value="Non" style="ellipse;whiteSpace=wrap;html=1;" parent="1" vertex="1">
          <mxGeometry x="190" y="1040" width="80" height="80" as="geometry" />
        </mxCell>
        <mxCell id="eGANBQNXA1RVqkdVqF60-32" value="" style="edgeStyle=orthogonalEdgeStyle;rounded=0;orthogonalLoop=1;jettySize=auto;html=1;" parent="1" source="eGANBQNXA1RVqkdVqF60-27" target="eGANBQNXA1RVqkdVqF60-31" edge="1">
          <mxGeometry relative="1" as="geometry" />
        </mxCell>
        <mxCell id="eGANBQNXA1RVqkdVqF60-27" value="Oui" style="ellipse;whiteSpace=wrap;html=1;" parent="1" vertex="1">
          <mxGeometry x="-100" y="1040" width="80" height="80" as="geometry" />
        </mxCell>
        <mxCell id="eGANBQNXA1RVqkdVqF60-34" value="" style="edgeStyle=orthogonalEdgeStyle;rounded=0;orthogonalLoop=1;jettySize=auto;html=1;" parent="1" source="eGANBQNXA1RVqkdVqF60-29" target="eGANBQNXA1RVqkdVqF60-33" edge="1">
          <mxGeometry relative="1" as="geometry" />
        </mxCell>
        <mxCell id="eGANBQNXA1RVqkdVqF60-29" value="&lt;font style=&quot;font-size: 10px;&quot;&gt;Lancement d&#39;un délai x&lt;/font&gt;" style="shape=parallelogram;perimeter=parallelogramPerimeter;whiteSpace=wrap;html=1;fixedSize=1;" parent="1" vertex="1">
          <mxGeometry x="160" y="1210" width="140" height="60" as="geometry" />
        </mxCell>
        <mxCell id="eGANBQNXA1RVqkdVqF60-39" style="edgeStyle=orthogonalEdgeStyle;rounded=0;orthogonalLoop=1;jettySize=auto;html=1;entryX=0;entryY=0.5;entryDx=0;entryDy=0;" parent="1" source="eGANBQNXA1RVqkdVqF60-31" target="eGANBQNXA1RVqkdVqF60-35" edge="1">
          <mxGeometry relative="1" as="geometry">
            <Array as="points">
              <mxPoint x="-70" y="1640" />
              <mxPoint x="310" y="1640" />
            </Array>
          </mxGeometry>
        </mxCell>
        <mxCell id="eGANBQNXA1RVqkdVqF60-31" value="&lt;font style=&quot;font-size: 10px;&quot;&gt;sonLumiere = False&lt;br style=&quot;border-color: var(--border-color);&quot;&gt;Accès = False&lt;/font&gt;" style="shape=parallelogram;perimeter=parallelogramPerimeter;whiteSpace=wrap;html=1;fixedSize=1;" parent="1" vertex="1">
          <mxGeometry x="-120" y="1210" width="120" height="60" as="geometry" />
        </mxCell>
        <mxCell id="eGANBQNXA1RVqkdVqF60-36" value="" style="edgeStyle=orthogonalEdgeStyle;rounded=0;orthogonalLoop=1;jettySize=auto;html=1;" parent="1" source="eGANBQNXA1RVqkdVqF60-33" target="eGANBQNXA1RVqkdVqF60-35" edge="1">
          <mxGeometry relative="1" as="geometry" />
        </mxCell>
        <mxCell id="eGANBQNXA1RVqkdVqF60-33" value="&lt;font style=&quot;font-size: 10px;&quot;&gt;sonLumiere = False&lt;br style=&quot;border-color: var(--border-color);&quot;&gt;Accès = False&lt;/font&gt;" style="shape=parallelogram;perimeter=parallelogramPerimeter;whiteSpace=wrap;html=1;fixedSize=1;" parent="1" vertex="1">
          <mxGeometry x="160" y="1350" width="140" height="60" as="geometry" />
        </mxCell>
        <mxCell id="eGANBQNXA1RVqkdVqF60-41" style="edgeStyle=orthogonalEdgeStyle;rounded=0;orthogonalLoop=1;jettySize=auto;html=1;entryX=0;entryY=0.5;entryDx=0;entryDy=0;" parent="1" source="eGANBQNXA1RVqkdVqF60-35" target="eGANBQNXA1RVqkdVqF60-5" edge="1">
          <mxGeometry relative="1" as="geometry">
            <Array as="points">
              <mxPoint x="325" y="1680" />
              <mxPoint x="-210" y="1680" />
              <mxPoint x="-210" y="410" />
            </Array>
          </mxGeometry>
        </mxCell>
        <mxCell id="eGANBQNXA1RVqkdVqF60-35" value="" style="ellipse;whiteSpace=wrap;html=1;strokeColor=#FFFFFF;fillColor=#000000;" parent="1" vertex="1">
          <mxGeometry x="310" y="1626" width="30" height="30" as="geometry" />
        </mxCell>
        <mxCell id="eGANBQNXA1RVqkdVqF60-40" style="edgeStyle=orthogonalEdgeStyle;rounded=0;orthogonalLoop=1;jettySize=auto;html=1;entryX=1;entryY=0.5;entryDx=0;entryDy=0;" parent="1" source="eGANBQNXA1RVqkdVqF60-37" target="eGANBQNXA1RVqkdVqF60-35" edge="1">
          <mxGeometry relative="1" as="geometry">
            <Array as="points">
              <mxPoint x="510" y="1640" />
              <mxPoint x="340" y="1640" />
            </Array>
          </mxGeometry>
        </mxCell>
        <mxCell id="eGANBQNXA1RVqkdVqF60-37" value="&lt;font style=&quot;font-size: 10px;&quot;&gt;sonLumiere = False&lt;br style=&quot;border-color: var(--border-color);&quot;&gt;Accès = False&lt;/font&gt;" style="shape=parallelogram;perimeter=parallelogramPerimeter;whiteSpace=wrap;html=1;fixedSize=1;" parent="1" vertex="1">
          <mxGeometry x="450" y="810" width="120" height="60" as="geometry" />
        </mxCell>
      </root>
    </mxGraphModel>
  </diagram>
</mxfile>
